Nomada.sfdir
StartChar: u10400
Encoding: 0 66560 3
Width: 891
VWidth: 1754
Flags: W
HStem: -17 161<316.013 537.496> 435 158<323.511 562.39> 856 161<307.553 522.651>
LayerCount: 2
Fore
SplineSet
442.015625 593 m 0
 -27.427734375 575.9296875 21.4599609375 -17 418.000976562 -17 c 0
 562.422851562 -17 653.951171875 33.0078125 716 164 c 0
 760.666992188 255.333007812 782.666992188 366.666992188 782 498 c 0
 782 578 771.833984375 654.666992188 751.5 728 c 0
 731.166992188 801.333007812 703.666992188 860 669 904 c 0
 607.666992188 979.333007812 522.666992188 1017 414 1017 c 0
 336.666992188 1017 273.333984375 1000 224 966 c 0
 174.666992188 932 133.666992188 875.333007812 101 796 c 1
 251 737 l 1
 273 780.333007812 296 811 320 829 c 0
 344 847 375.333984375 856 414 856 c 0
 494 856 549.010742188 814.606445312 582 733 c 0
 600.474609375 687.30078125 616.013671875 610.362304688 621.015625 548 c 1
 619.3125 548.467773438 552.015625 597 442.015625 593 c 0
608.166992188 342.954101562 m 1
 588.827148438 231.568359375 548.208984375 142.76953125 435 144 c 0
 342.868164062 144 260.015625 200.490234375 260.015625 291 c 0
 260.015625 366.359375 336.22265625 435 442.015625 435 c 0
 454.4921875 435 564.479492188 432.43359375 608.166992188 342.954101562 c 1
EndSplineSet
Validated: 524329
EndChar
StartChar: u10401
Encoding: 1 66561 4
Width: 851
VWidth: 1754
Flags: W
HStem: -17 161<331.932 567.625> 466 159<322.493 427> 856 161<349.765 554.854>
VStem: 112 157<206.725 428.959> 150 157<640.315 814.432>
LayerCount: 2
Fore
SplineSet
112 331 m 0xf0
 112 228.333007812 143.666992188 144.666992188 207 80 c 0
 270.333007812 15.3330078125 352.666992188 -17 454 -17 c 0
 534 -17 604.333007812 7 665 55 c 0
 725.666992188 103 766.666992188 167.333007812 788 248 c 1
 634 295 l 1
 608.666992188 194.333007812 546.666992188 144 448 144 c 0
 395.333007812 144 352.333007812 160.5 319 193.5 c 0
 285.666992188 226.5 269 268.333007812 269 319 c 0xf0
 269 377 288 419 326 445 c 0
 337.333007812 453 347.666992188 457.833007812 357 459.5 c 0
 366.333007812 461.166992188 389.666992188 463.333007812 427 466 c 1
 524 466 l 1
 524 629 l 1
 524 625 l 1
 521 625 l 1
 517 625 l 1
 407 625 l 2
 341 625 307.666992188 657.666992188 307 723 c 0
 307 761.666992188 320.666992188 793.5 348 818.5 c 0
 375.333007812 843.5 409.666992188 856 451 856 c 0
 517 856 567.333007812 823 602 757 c 1
 749 814 l 1
 723 878 683.666992188 927.833007812 631 963.5 c 0
 578.333007812 999.166992188 519.333007812 1017 454 1017 c 0
 369.333007812 1017 297.5 987.333007812 238.5 928 c 0
 179.5 868.666992188 150 797 150 713 c 0xe8
 150 658.333007812 168.666992188 602.666992188 206 546 c 1
 169.333007812 512.666992188 144.5 480.833007812 131.5 450.5 c 0
 118.5 420.166992188 112 380.333007812 112 331 c 0xf0
EndSplineSet
Validated: 524293
EndChar
StartChar: u10402
Encoding: 2 66562 0
Width: 917
VWidth: 1754
Flags: WO
HStem: -17 161<335.777 546.242> 466 159<322.538 444> 856 161<347.963 548.879>
VStem: 112 157<206.143 429.006> 150 157<640.315 812.653> 658 150<286.396 718.513>
LayerCount: 2
Fore
SplineSet
307 723 m 0xec
 307 801.942382812 368.784179688 856 451 856 c 0
 650.952148438 856 658 540.06640625 658 536 c 24
 658 174 504.205078125 144 448 144 c 0
 339.793945312 144 269 219.008789062 269 319 c 0xf4
 269 440.333007812 355.368164062 459.208984375 357 459.5 c 0
 387.345703125 464.918945312 443.127929688 466 444 466 c 1
 444 625 l 1
 407 625 l 2
 341 625 307.666992188 657.666992188 307 723 c 0xec
112 331 m 0
 112 125.431640625 248.861328125 -17 454 -17 c 0
 808 -17 808 386.198242188 808 556 c 24
 808 635.372070312 766.955078125 1017 454 1017 c 0
 281.817382812 1017 150 881.413085938 150 713 c 0xec
 150 658.333007812 168.666992188 602.666992188 206 546 c 1
 135.209960938 481.646484375 112 431.0625 112 331 c 0
EndSplineSet
Validated: 524297
EndChar
StartChar: u10403
Encoding: 3 66563 1
Width: 939
VWidth: 1754
Flags: W
HStem: -17 161<374.7 573.5> 403 144<399.283 567.053> 856 161<375.948 575.26>
VStem: 121 162.392<262.632 468.778> 671.15 158.85<272.755 461.091>
LayerCount: 2
Fore
SplineSet
484 1017 m 1024
830 498 m 0
 830 416.666992188 820.5 339.666992188 801.5 267 c 0
 739.384765625 29.4365234375 602.416992188 -17 479 -17 c 0
 334.5703125 -17 246.982421875 43.9453125 191 161 c 0
 144.333007812 252.333007812 121 364.666992188 121 498 c 0
 121 665.17578125 159.649414062 1017 485 1017 c 0
 571.172851562 1017 830 977.123046875 830 498 c 0
623.44140625 757.926757812 m 1
 605.251953125 794.635742188 573.219726562 850.875976562 482 856 c 0
 420.768554688 858.7578125 373.458984375 831.162109375 340.071289062 773.212890625 c 1
 341.838867188 664.46484375 368.776367188 624.354492188 392 593.5 c 0
 415.333007812 562.5 445.833007812 547 483.5 547 c 0
 521.166992188 547 551.5 562.666992188 574.5 594 c 0
 606.524414062 637.627929688 619.954101562 674.15234375 623.44140625 757.926757812 c 1
671.150390625 461.090820312 m 1
 616.208007812 417.590820312 551.5 403 484 403 c 0
 399.624023438 403 332.754882812 424.92578125 283.391601562 468.778320312 c 1
 287.30078125 325.796875 322.954101562 144 479 144 c 0
 646.225585938 144 668.265625 399.4765625 671.150390625 461.090820312 c 1
EndSplineSet
Validated: 524321
EndChar
StartChar: u10404
Encoding: 4 66564 2
Width: 939
VWidth: 1754
Flags: W
HStem: -17 161<376.937 574.589>
VStem: 121 162<260.74 731.47> 672 158<275.138 735.136>
LayerCount: 2
Fore
SplineSet
830 498 m 0
 830 442.4375 823.38671875 221.231445312 722 94 c 1
 667.333007812 20 586.333007812 -17 479 -17 c 0
 334.73046875 -17 247.052734375 43.798828125 191 161 c 1
 144.333007812 252.333007812 121 364.666992188 121 498 c 0
 121 666 157.333007812 801.333007812 230 904 c 1
 288 979.333007812 373 1017 485 1017 c 0
 608.333007812 1017 701 957.333007812 763 838 c 1
 807.666992188 746 830 632.666992188 830 498 c 0
479 144 m 0
 642.025390625 144 672 386.092773438 672 498 c 0
 672 618 652 711.666992188 612 779 c 0
 542.3828125 901.255859375 283 931.38671875 283 498 c 0
 283 349.599609375 312.9609375 144 479 144 c 0
EndSplineSet
Validated: 524321
EndChar
StartChar: u10405
Encoding: 5 66565 5
Width: 939
VWidth: 1754
Flags: W
VStem: 121 162<263.182 731.18> 401 161<169.958 832.421> 672 158<277.451 734.499>
LayerCount: 2
Fore
SplineSet
562 169.958007812 m 1
 635.775390625 223.18359375 672 363.081054688 672 498 c 0
 672 561.654296875 663.959960938 768.483398438 562 832.420898438 c 1
 562 169.958007812 l 1
830 498 m 0
 830 442.4375 823.38671875 221.231445312 722 94 c 0
 667.333007812 20 586.333007812 -17 479 -17 c 0
 334.73046875 -17 247.052734375 43.798828125 191 161 c 0
 144.333007812 252.333007812 121 364.666992188 121 498 c 0
 121 666 157.333007812 801.333007812 230 904 c 0
 288 979.333007812 373 1017 485 1017 c 0
 608.333007812 1017 701 957.333007812 763 838 c 0
 807.666992188 746 830 632.666992188 830 498 c 0
401 837.607421875 m 1
 325.71484375 794.04296875 283 666.139648438 283 498 c 0
 283 408.260742188 295.8984375 218.5234375 401 162.012695312 c 1
 401 837.607421875 l 1
EndSplineSet
Validated: 524289
EndChar
StartChar: u10406
Encoding: 6 66566 6
Width: 570
VWidth: 1754
Flags: W
HStem: 0 21G<214 375>
VStem: 214 161<0 1000>
LayerCount: 2
Fore
SplineSet
475 385 m 5
 104 555 l 5
 104 742 l 5
 475 572 l 5
 475 385 l 5
375 0 m 1
 214 0 l 1
 214 1000 l 1
 375 1000 l 1
 375 0 l 1
EndSplineSet
Validated: 5
EndChar
StartChar: u10407
Encoding: 7 66567 7
Width: 814
VWidth: 1754
Flags: W
HStem: 0 21G<524 685> 193 161<240.005 467.165>
VStem: 524 161<0 135.547 316.008 1000>
LayerCount: 2
Fore
SplineSet
685 0 m 1
 524 0 l 1
 524 5 l 2
 524 65.6669921875 508.5 110.5 479.5 143.5 c 0
 450.5 176.5 409 193 355 193 c 0
 290.333007812 193 235 164 189 106 c 1
 45 173 l 1
 62.3330078125 203.666992188 82.3330078125 230.333007812 105 253 c 0
 175.666992188 320.333007812 259 354 355 354 c 0
 419.392578125 354 475.725585938 341.3359375 524 316.0078125 c 1
 524 1000 l 1
 685 1000 l 1
 685 0 l 1
EndSplineSet
Validated: 524289
EndChar
StartChar: u10408
Encoding: 8 66568 8
Width: 835
VWidth: 1754
Flags: W
HStem: 0 21G<669.172 704>
VStem: 543 161<253.455 1000>
LayerCount: 2
Fore
SplineSet
704 0 m 1
 98 348 l 1
 98 509 l 1
 543 253.455078125 l 1
 543 1000 l 1
 704 1000 l 1
 704 161 l 1
 704 0 l 1
EndSplineSet
Validated: 524289
EndChar
StartChar: u1040A
Encoding: 10 66570 10
Width: 821
VWidth: 1754
Flags: W
HStem: 0 21G<131 292> 646 161<348.835 575.995>
VStem: 131 161<0 683.992 864.453 1000>
LayerCount: 2
Fore
SplineSet
131 1000 m 1
 292 1000 l 1
 292 995 l 2
 292 934.333007812 307.5 889.5 336.5 856.5 c 0
 365.5 823.5 407 807 461 807 c 0
 525.666992188 807 581 836 627 894 c 1
 771 827 l 1
 753.666992188 796.333007812 733.666992188 769.666992188 711 747 c 0
 640.333007812 679.666992188 557 646 461 646 c 0
 396.607421875 646 340.274414062 658.6640625 292 683.9921875 c 1
 292 0 l 1
 131 0 l 1
 131 1000 l 1
EndSplineSet
Validated: 524289
EndChar
StartChar: u1040B
Encoding: 11 66571 11
Width: 890
VWidth: 1754
Flags: W
HStem: 0 21G<610 767> 435 161<281.375 610> 843 157<283.362 573.638>
VStem: 87 161<627.841 807.245> 610 157<0 435 596 804.197>
LayerCount: 2
Fore
SplineSet
767 718.59375 m 12
 767 438 767 0 767 0 c 5
 610 0 l 5
 610 435 l 5
 425 435 l 6
 353.666992188 435 292.333007812 446.333007812 241 469 c 4
 197.666992188 488.333007812 161.166992188 521.666992188 131.5 569 c 4
 101.833007812 616.333007812 87 666.333007812 87 719 c 4
 87 769 101.5 817.5 130.5 864.5 c 4
 159.5 911.5 196.5 945.833007812 241.5 967.5 c 4
 286.5 989.166992188 348 1000 425 1000 c 6
 425 1000 431 1000 432 1000 c 6
 509 1000 570.5 989.166992188 615.5 967.5 c 4
 632.534179688 959.297851562 767 889.154296875 767 718.59375 c 12
610 719.288085938 m 20
 610 765.288085938 589 800 549 824 c 5
 523.666992188 836.666992188 492 843 455 843 c 6
 454 843 402 843 402 843 c 6
 365 843 333.333007812 836.666992188 308 824 c 5
 268 800 248 765 248 719 c 4
 248 697 253.666992188 675.833007812 265 655.5 c 4
 276.333007812 635.166992188 290.666992188 621 308 613 c 4
 330.666992188 601.666992188 362 596 402 596 c 6
 610 596 l 5
 610 596 610 671 610 719.288085938 c 20
767 718.59375 m 1029
488.970703125 843 m 1029
610 719.288085938 m 1029
EndSplineSet
Validated: 524289
EndChar
StartChar: u1040C
Encoding: 12 66572 12
Width: 936
VWidth: 1754
Flags: W
HStem: 332.715 155.639<249.205 410.145 571.145 679.636>
VStem: 410.145 161<160.014 328.998 489.999 997>
LayerCount: 2
Fore
SplineSet
473.14453125 -190 m 1049
571.14453125 489.999023438 m 1
 648.772460938 489.819335938 791.428710938 465.963867188 880.14453125 309 c 1
 736.14453125 242 l 1
 690.381835938 299.701171875 635.381835938 328.700195312 571.14453125 328.998046875 c 1
 571.14453125 207 l 1
 559.094726562 157.55078125 l 1
 509.076171875 2.4453125 293.092773438 -92.3603515625 149.40625 85.0732421875 c 0
 11.2197265625 255.717773438 109.22265625 424.860351562 256.05078125 470.602539062 c 0
 287.904296875 480.526367188 333.081054688 486.444335938 391.583984375 488.353515625 c 1
 410.14453125 488.524414062 l 1
 410.14453125 997 l 5
 571.14453125 997 l 5
 571.14453125 489.999023438 l 1
410.14453125 332.71484375 m 1
 131.797851562 342.65625 208.59765625 145.3828125 302.7109375 136.416015625 c 0
 343.9375 132.486328125 393.577148438 163.474609375 410.14453125 213 c 1
 410.14453125 332.71484375 l 1
EndSplineSet
Validated: 524321
EndChar
StartChar: u1040D
Encoding: 13 66573 13
Width: 902
VWidth: 1754
Flags: W
HStem: -17 161<323.777 534.242> 466 159<310.538 517.121> 856 161<335.963 539.515>
VStem: 100 157<206.143 429.006> 138 157<640.315 812.653> 646 150<286.396 586.09>
LayerCount: 2
Fore
SplineSet
100 331 m 0xf4
 100 125.431640625 236.861328125 -17 442 -17 c 0
 796 -17 796 386.198242188 796 556 c 0
 796 635.372070312 754.955078125 1017 442 1017 c 0
 269.817382812 1017 138 881.413085938 138 713 c 0xec
 138 658.333007812 156.666992188 602.666992188 194 546 c 1
 123.209960938 481.646484375 100 431.0625 100 331 c 0xf4
572.447265625 786.911132812 m 1
 561.85546875 700.5078125 514.362304688 625 436.5 625 c 2
 395 625 l 2
 329 625 295.666992188 657.666992188 295 723 c 0
 295 801.942382812 356.784179688 856 439 856 c 0
 499.354492188 856 542.1328125 827.215820312 572.447265625 786.911132812 c 1
436 144 m 0
 327.793945312 144 257 219.008789062 257 319 c 0xf4
 257 440.333007812 343.368164062 459.208984375 345 459.5 c 0
 375.345703125 464.919921875 431.127929688 466 432 466 c 0
 544.970703125 466 615 549 641.755859375 587.861328125 c 1
 645.557617188 557.590820312 646 537.018554688 646 536 c 0
 646 174 492.205078125 144 436 144 c 0
EndSplineSet
Validated: 524297
EndChar
StartChar: u1040E
Encoding: 14 66574 14
Width: 1285
VWidth: 1754
Flags: W
HStem: -17 161<376.494 564.355 727.716 913.035>
VStem: 121 161<272.58 1000> 566 160<151.52 1000> 1000 161<551.814 1000>
LayerCount: 2
Fore
SplineSet
1000 1000 m 1
 1161 1000 l 1
 1159.796875 379.046875 1159.796875 379.046875 1130.5 267 c 0
 1068.3671875 29.369140625 931.33984375 -17 808 -17 c 0
 742.3125 -17 688.555664062 -4.244140625 643.213867188 21.4873046875 c 1
 598.2734375 -4.1708984375 544.201171875 -17 481 -17 c 0
 411.666992188 -17 353.666992188 -2.6669921875 307 26 c 0
 196.87109375 93.650390625 121 294.29296875 121 480 c 0
 121 1000 l 1
 282 1000 l 1
 282 480 l 1
 282.33203125 363.4453125 305.69921875 282.021484375 344 221 c 0
 375.608398438 170.640625 419.666992188 144 481 144 c 0
 513.220703125 144 541.553710938 153.142578125 566 171.427734375 c 1
 566 1000 l 1
 726 1000 l 1
 726 164.250976562 l 1
 749.212890625 150.75 776.546875 144 808 144 c 0
 1008.91503906 144 1006.30664062 394.405273438 1000 1000 c 1
643.213867188 21.486328125 m 1025
283.66796875 488.5546875 m 1025
EndSplineSet
Validated: 524321
EndChar
StartChar: u1040F
Encoding: 15 66575 15
Width: 1250
VWidth: 1754
Flags: W
HStem: 498.646 155.962<244.754 417.376> 502.38 166.309<990.694 1125.2>
LayerCount: 2
Fore
SplineSet
417.375976562 654.608398438 m 5x80
 415.676757812 654.4296875 299.244140625 647.327148438 249.681640625 687.463867188 c 4
 229.994140625 703.407226562 219.572265625 723.640625 218.416015625 748.16796875 c 4
 217.260742188 772.694335938 224.86328125 795.060546875 241.2265625 815.266601562 c 4
 258.427734375 836.5078125 279.11328125 848.28125 303.28125 850.583984375 c 4
 327.451171875 852.887695312 351.192382812 844.599609375 374.506835938 825.719726562 c 4
 392.1484375 811.43359375 403.513671875 795.526367188 410.71484375 774 c 5
 655.71484375 0 l 1
 776.71484375 0 l 1
 1097.71484375 1000 l 1
 927.71484375 1000 l 1
 718.71484375 334 l 1
 559.665039062 829.44921875 l 5
 545.25 874.149414062 518.095703125 912.650390625 478.202148438 944.956054688 c 4
 426.392578125 986.911132812 369.854492188 1003.95800781 308.5859375 996.096679688 c 4
 247.318359375 988.235351562 194.44921875 956.844726562 149.9765625 901.926757812 c 4
 102.567382812 843.381835938 80.708984375 783.01953125 84.400390625 720.83984375 c 4
 88.091796875 658.659179688 115.32421875 607.01171875 166.09765625 565.895507812 c 4
 194.59375 542.8203125 224.766601562 526.321289062 256.62109375 516.397460938 c 4
 288.474609375 506.473632812 333.651367188 500.555664062 392.154296875 498.646484375 c 5x80
 1125.20410156 502.379882812 l 5
 1184.87792969 668.688476562 l 5x40
 935.297851562 664.517578125 416.431640625 654.592773438 417.375976562 654.608398438 c 5x80
EndSplineSet
Validated: 524325
EndChar
StartChar: u10410
Encoding: 16 66576 16
Width: 939
VWidth: 1754
Flags: W
HStem: 0 21G<367 528> 498.476 155.81<258.508 367 528 688.94>
VStem: 367 161<0 497.001 658.002 826.986>
LayerCount: 2
Fore
SplineSet
465 1177 m 1053
367 497.000976562 m 5
 289.372070312 497.180664062 146.715820312 521.036132812 58 678 c 5
 202 745 l 5
 247.762695312 687.298828125 302.762695312 658.299804688 367 658.001953125 c 5
 367 780 l 5
 379.049804688 829.44921875 l 5
 429.068359375 984.5546875 645.051757812 1079.36035156 788.73828125 901.926757812 c 4
 926.924804688 731.282226562 828.921875 562.139648438 682.09375 516.397460938 c 4
 650.240234375 506.473632812 605.063476562 500.555664062 546.560546875 498.646484375 c 5
 528 498.475585938 l 5
 528 0 l 5
 367 0 l 5
 367 497.000976562 l 5
528 654.28515625 m 5
 806.346679688 644.34375 729.546875 841.6171875 635.43359375 850.583984375 c 4
 594.20703125 854.513671875 544.567382812 823.525390625 528 774 c 5
 528 654.28515625 l 5
EndSplineSet
Validated: 524321
EndChar
StartChar: u10411
Encoding: 17 66577 17
Width: 803
VWidth: 1754
Flags: W
HStem: 0 21G<515 672> 853 147<52 515>
VStem: 515 157<0 853>
LayerCount: 2
Fore
SplineSet
52 1000 m 5
 672 1000 l 5
 672 0 l 5
 515 0 l 5
 515 853 l 5
 52 853 l 5
 52 1000 l 5
EndSplineSet
Validated: 1
EndChar
StartChar: u10412
Encoding: 18 66578 18
Width: 907
VWidth: 1754
Flags: W
HStem: -17 161<319.932 556.962> 466 159<310.493 415> 856 161<337.765 543.413>
VStem: 100 157<206.725 428.959> 138 157<640.315 814.432> 615 161<201.405 271.167 688.25 774.423>
LayerCount: 2
Fore
SplineSet
100 331 m 0xf4
 100 228.333007812 131.666992188 144.666992188 195 80 c 0
 258.333007812 15.3330078125 340.666992188 -17 442 -17 c 0
 505.818359375 -17 563.484375 -1.7275390625 615 28.818359375 c 1
 615 0 l 1
 776 0 l 1
 776 248 l 1
 776 719 l 1
 776 1000 l 1
 615 1000 l 1
 615 966.166992188 l 1
 563.350585938 1000.05566406 505.68359375 1017 442 1017 c 0
 357.333007812 1017 285.5 987.333007812 226.5 928 c 0
 167.5 868.666992188 138 797 138 713 c 0xec
 138 658.333007812 156.666992188 602.666992188 194 546 c 1
 157.333007812 512.666992188 132.5 480.833007812 119.5 450.5 c 0
 106.5 420.166992188 100 380.333007812 100 331 c 0xf4
615 688.25 m 1
 615 271.166992188 l 1
 586.212890625 186.388671875 526.546875 144 436 144 c 0
 383.333007812 144 340.333007812 160.5 307 193.5 c 0
 273.666992188 226.5 257 268.333007812 257 319 c 0xf4
 257 377 276 419 314 445 c 0
 325.333007812 453 335.666992188 457.833007812 345 459.5 c 0
 354.333007812 461.166992188 377.666992188 463.333007812 415 466 c 2
 512 466 l 1
 512 625 l 1
 509 625 l 1
 505 625 l 1
 395 625 l 2
 329 625 295.666992188 657.666992188 295 723 c 0
 295 761.666992188 308.666992188 793.5 336 818.5 c 0
 363.333007812 843.5 397.666992188 856 439 856 c 0
 554 856 584.796875 771.307617188 615 688.25 c 1
EndSplineSet
Validated: 524297
EndChar
StartChar: u10413
Encoding: 19 66579 19
Width: 880
VWidth: 1754
Flags: W
HStem: 0 21G<604.001 761.001> 856 161<310.558 533.18>
VStem: 81 158<642 780.896> 604.001 157<0 780.325>
LayerCount: 2
Fore
SplineSet
81 642 m 1
 81.0009765625 712.666992188 96.333984375 781.666992188 127.000976562 849 c 1
 153.000976562 898.333007812 193.500976562 938.666992188 248.500976562 970 c 0
 303.500976562 1001.33300781 361.333984375 1017 422.000976562 1017 c 0
 482.666992188 1017 540.333984375 1001.33300781 595.000976562 970 c 0
 649.666992188 938.666992188 690.333984375 898.333007812 717.000976562 849 c 1
 747.000976562 783.666992188 761.666992188 714.666992188 761.000976562 642 c 2
 761.000976562 0 l 1
 604.000976562 0 l 1
 604.000976562 642 l 2
 604.000976562 707.333007812 587.333984375 759.333007812 554.000976562 798 c 0
 520.666992188 836.666992188 476.666992188 856 422.000976562 856 c 0
 367.333984375 856 323.166992188 836.666992188 289.500976562 798 c 0
 255.833984375 759.333007812 239.000976562 707.333007812 239 642 c 1
 81 642 l 1
EndSplineSet
Validated: 524321
EndChar
StartChar: u10414
Encoding: 20 66580 20
Width: 949
VWidth: 1754
Flags: W
HStem: -17 161<358.81 562.375> 0 21G<657 818> 403 144<387.501 552.532> 856 161<362.426 562.79>
VStem: 657 161<267 650 838 1000> 657 114<566.641 785.5>
LayerCount: 2
Fore
SplineSet
818 0 m 5x78
 657 0 l 5x74
 657 1000 l 5
 818 1000 l 5
 818 0 l 5x78
585.5 926.5 m 5
 741 837 l 4
 771 785.5 l 5
 771 738 766.833007812 691.333007812 758.5 650 c 4
 750.166992188 608.666992188 735.666992188 568.666992188 715 530 c 4
 694.333007812 491.333007812 663.166992188 460.5 621.5 437.5 c 4
 579.833007812 414.5 529.333007812 403 470 403 c 4
 266.666992188 403 165 530.333007812 165 785 c 5
 317 914 l 4
 334.5 877 l 5
 328.833007812 845.666992188 326 814 326 782 c 4
 326 750 328.833007812 718.333007812 334.5 687 c 4
 340.166992188 655.666992188 354.666992188 624.5 378 593.5 c 4
 401.333007812 562.5 431.833007812 547 469.5 547 c 4
 507.166992188 547 537.5 562.666992188 560.5 594 c 4
 583.5 625.333007812 597.5 656.666992188 602.5 688 c 4
 607.5 719.333007812 610 751.666992188 610 785 c 4
 610 807 608 829.333007812 604 852 c 4
 600 874.666992188 593.833007812 899.5 585.5 926.5 c 5
470 1017 m 1028
816 498 m 4
 816 416.666992188 806.5 339.666992188 787.5 267 c 4
 768.5 194.333007812 742 136.666992188 708 94 c 5
 653.333007812 20 572.333007812 -17 465 -17 c 4xb0
 395.666992188 -17 337.666992188 -2.6669921875 291 26 c 4
 244.333007812 54.6669921875 206.333007812 99.6669921875 177 161 c 5
 130.333007812 252.333007812 107 364.666992188 107 498 c 4
 107 666 143.333007812 801.333007812 216 904 c 5
 274 979.333007812 359 1017 471 1017 c 4
 594.333007812 1017 687 957.333007812 749 838 c 5
 793.666992188 746 816 632.666992188 816 498 c 4
658 498 m 4
 658 618 638 711.666992188 598 779 c 4
 570.666992188 827 527.333007812 852.666992188 468 856 c 4
 394 859.333007812 340.333007812 818.333007812 307 733 c 4
 281.666992188 670.333007812 269 592 269 498 c 4
 269 376 288.666992188 283.666992188 328 221 c 5
 358 169.666992188 403.666992188 144 465 144 c 4
 534.333007812 144 585.666992188 186.333007812 619 271 c 4
 645 337.666992188 658 413.333007812 658 498 c 4
EndSplineSet
Validated: 524325
EndChar
StartChar: u10415
Encoding: 21 66581 21
Width: 851
VWidth: 1754
Flags: W
HStem: -17 161<368.429 579.507> 856 161<370.178 583.434>
VStem: 107.014 162<269.043 725.828>
LayerCount: 2
Fore
SplineSet
269.013671875 502 m 0
 269.013671875 320.56640625 312.547851562 144 482.013671875 144 c 0
 548.013671875 144 600.013671875 182.666992188 638.013671875 260 c 1
 788.013671875 204 l 1
 727.346679688 56.6669921875 627.013671875 -17 487.013671875 -17 c 0
 343.013671875 -17 240.6796875 42.3330078125 180.013671875 161 c 1
 130.6796875 253.666992188 106.346679688 367.333007812 107.013671875 502 c 0
 107.013671875 640.532226562 138.016601562 1017 475.013671875 1017 c 0
 633.1796875 1017 726.274414062 947.556640625 788.013671875 814 c 1
 641.013671875 750 l 1
 583.838867188 833.765625 547.9140625 856 475.013671875 856 c 0
 395.013671875 856 339.013671875 815 307.013671875 733 c 0
 281.6796875 670.333007812 269.013671875 593.333007812 269.013671875 502 c 0
EndSplineSet
Validated: 524321
EndChar
StartChar: u10416
Encoding: 22 66582 22
Width: 773
VWidth: 1754
Flags: W
HStem: 0 21G<358 607.881> 238 148<321.239 439.849> 852 147<318.676 493.196>
VStem: 99 161<455.858 786.648>
LayerCount: 2
Fore
SplineSet
406.59375 852 m 0
 373.965820312 852 260 836.502929688 260 620 c 0
 260 511.669921875 286.370117188 465.685546875 307.745117188 437.592773438 c 0
 335.333007812 401.333007812 366 386 406.35546875 386 c 0
 476 386 518.333007812 431.666992188 531 523 c 1
 692 480 l 1
 688.762695312 464.637695312 688.762695312 464.637695312 527 0 c 1
 358 0 l 1
 440.447265625 239.669921875 l 1
 428.02734375 238.556640625 415.166015625 238 401.862304688 238 c 0
 200.666992188 238 99 365.333007812 99 614.549804688 c 0
 99 779.2421875 147.609375 999 407.05859375 999 c 0
 549.333007812 999 641.666992188 938.333007812 681 817 c 1
 520 761 l 1
 502.666992188 821.666992188 464 852 406.59375 852 c 0
EndSplineSet
Validated: 524289
EndChar
StartChar: u10417
Encoding: 23 66583 23
Width: 1241
VWidth: 1754
Flags: W
HStem: -17 161<356.019 545.564 708.926 884.853>
VStem: 982.209 158<274.132 665.657>
LayerCount: 2
Fore
SplineSet
624.422851562 21.486328125 m 1025
624.422851562 21.4873046875 m 1
 669.764648438 -4.244140625 723.522460938 -17 789.208984375 -17 c 0
 912.548828125 -17 1049.57714844 29.369140625 1111.70898438 267 c 0
 1130.70898438 339.666992188 1138.45800781 416.685546875 1140.20898438 498 c 0
 1154.20898438 1148 191.208984375 1231 104.208984375 498 c 0
 82.1552734375 312.185546875 177.043945312 94.287109375 288.208984375 26 c 0
 334.875976562 -2.6669921875 392.875976562 -17 462.208984375 -17 c 0
 525.411132812 -17 579.482421875 -4.1708984375 624.422851562 21.4873046875 c 1
547.208984375 171.427734375 m 1
 522.763671875 153.142578125 494.4296875 144 462.208984375 144 c 0
 400.875976562 144 355.208984375 169.666992188 325.208984375 221 c 0
 285.875976562 283.666992188 247.8359375 377.391601562 266.208984375 498 c 0
 344.208984375 1010 996.208984375 940 982.208984375 498 c 0
 979.529296875 413.375 969.208984375 337.666992188 943.208984375 271 c 0
 909.875976562 186.333007812 858.541992188 144 789.208984375 144 c 0
 757.755859375 144 730.422851562 150.75 707.208984375 164.250976562 c 1
 707.208984375 500 l 5
 547.208984375 500 l 5
 547.208984375 171.427734375 l 1
EndSplineSet
Validated: 524329
EndChar
StartChar: u10418
Encoding: 24 66584 24
Width: 1241
VWidth: 1754
Flags: WO
HStem: -17 161<356.019 545.564 708.926 884.853> 535.5 162<394.901 866.455>
VStem: 982.209 158<274.132 585.643>
LayerCount: 2
Fore
SplineSet
624.422851562 21.486328125 m 1025
308.421875 791.75 m 1025
941.215820312 781.759765625 m 1025
1023.27050781 637.494140625 m 1025
216.092773438 651.388671875 m 1025
547.208984375 171.427734375 m 1
 522.763671875 153.142578125 494.4296875 144 462.208984375 144 c 0
 400.875976562 144 355.208984375 169.666992188 325.208984375 221 c 0
 285.875976562 283.666992188 247.8359375 377.391601562 266.208984375 498 c 0
 272.083007812 536.552734375 281.209960938 571.8046875 293.0625 603.84765625 c 1
 385.12890625 558.282226562 497.677734375 535.5 630.708984375 535.5 c 0
 764.041992188 535.5 876.375976562 558.833007812 967.708984375 605.5 c 0
 968.805664062 606.024414062 969.896484375 606.55078125 970.981445312 607.081054688 c 1
 979.421875 573.76953125 983.456054688 537.359375 982.208984375 498 c 0
 979.529296875 413.375 969.208984375 337.666992188 943.208984375 271 c 0
 909.875976562 186.333007812 858.541992188 144 789.208984375 144 c 0
 757.755859375 144 730.422851562 150.75 707.208984375 164.250976562 c 1
 707.208984375 400 l 1
 547.208984375 400 l 1
 547.208984375 171.427734375 l 1
624.422851562 21.4873046875 m 1
 669.764648438 -4.244140625 723.522460938 -17 789.208984375 -17 c 0
 912.548828125 -17 1049.57714844 29.369140625 1111.70898438 267 c 0
 1130.70898438 339.666992188 1138.45800781 416.685546875 1140.20898438 498 c 0
 1154.20898438 1148 191.208984375 1231 104.208984375 498 c 0
 82.1552734375 312.185546875 177.043945312 94.287109375 288.208984375 26 c 0
 334.875976562 -2.6669921875 392.875976562 -17 462.208984375 -17 c 0
 525.411132812 -17 579.482421875 -4.1708984375 624.422851562 21.4873046875 c 1
377.60546875 743.182617188 m 1
 522.880859375 897.958007812 765.16015625 887.981445312 894.591796875 748.791992188 c 1
 832.421875 714.59765625 744.4609375 697.5 630.708984375 697.5 c 0
 536.708984375 697.5 458.375976562 710.166992188 395.708984375 735.5 c 0
 389.435546875 737.951171875 383.400390625 740.51171875 377.60546875 743.182617188 c 1
EndSplineSet
Validated: 524329
EndChar
StartChar: u10419
Encoding: 25 66585 25
Width: 896
VWidth: 1754
Flags: W
HStem: 435 161<469 612.625> 843 157<320.362 462 469 610.638>
VStem: 127 157<718.594 804.197> 646 161<627.841 807.245>
LayerCount: 2
Fore
SplineSet
127 718.59375 m 12
 127 438 127 0 127 0 c 5
 284 0 l 5
 284 435 l 5
 469 435 l 6
 540.333007812 435 601.666992188 446.333007812 653 469 c 4
 696.333007812 488.333007812 732.833007812 521.666992188 762.5 569 c 4
 792.166992188 616.333007812 807 666.333007812 807 719 c 4
 807 769 792.5 817.5 763.5 864.5 c 4
 734.5 911.5 697.5 945.833007812 652.5 967.5 c 4
 607.5 989.166992188 546 1000 469 1000 c 6
 469 1000 463 1000 462 1000 c 6
 385 1000 323.5 989.166992188 278.5 967.5 c 4
 261.465820312 959.297851562 127 889.154296875 127 718.59375 c 12
284 719.288085938 m 20
 284 765.288085938 305 800 345 824 c 5
 370.333007812 836.666992188 402 843 439 843 c 6
 440 843 492 843 492 843 c 6
 529 843 560.666992188 836.666992188 586 824 c 5
 626 800 646 765 646 719 c 4
 646 697 640.333007812 675.833007812 629 655.5 c 4
 617.666992188 635.166992188 603.333007812 621 586 613 c 4
 563.333007812 601.666992188 532 596 492 596 c 6
 284 596 l 5
 284 596 284 671 284 719.288085938 c 20
127 718.59375 m 1029
405.029296875 843 m 1029
284 719.288085938 m 1029
EndSplineSet
Validated: 524297
EndChar
StartChar: u1041A
Encoding: 26 66586 26
Width: 899
VWidth: 1754
Flags: W
HStem: -17 161<369.758 584.068> 466 159<472 593.507> 856 161<367.121 566.235>
VStem: 108 150<286.396 718.513> 609 157<640.315 814.432> 647 157<206.725 428.959>
LayerCount: 2
Fore
SplineSet
258 536 m 31xf8
 258 174 411.794921875 144 468 144 c 4
 520.666992188 144 563.666992188 160.5 597 193.5 c 4
 630.333007812 226.5 647 268.333007812 647 319 c 4xf4
 647 377 628 419 590 445 c 4
 578.666992188 453 568.333007812 457.833007812 559 459.5 c 4
 528.654296875 464.918945312 472.872070312 466 472 466 c 5
 472 625 l 5
 479 625 l 6
 509 625 l 6
 575 625 608.333007812 657.666992188 609 723 c 4
 609 761.666992188 595.333007812 793.5 568 818.5 c 4
 540.666992188 843.5 506.333007812 856 465 856 c 4
 265.047851562 856 258 540.06640625 258 536 c 31xf8
108 556 m 31
 108 635.372070312 149.044921875 1017 462 1017 c 4
 546.666992188 1017 618.5 987.333007812 677.5 928 c 4
 736.5 868.666992188 766 797 766 713 c 4xf8
 766 658.333007812 747.333007812 602.666992188 710 546 c 5
 746.666992188 512.666992188 771.5 480.833007812 784.5 450.5 c 4
 797.5 420.166992188 804 380.333007812 804 331 c 4
 804 228.333007812 772.333007812 144.666992188 709 80 c 4
 645.666992188 15.3330078125 563.333007812 -17 462 -17 c 4
 108 -17 108 386.198242188 108 556 c 31
EndSplineSet
Validated: 524289
EndChar
StartChar: u1041B
Encoding: 27 66587 27
Width: 789
VWidth: 1754
Flags: W
HStem: 0 147<288 751>
VStem: 131 157<147 1000>
LayerCount: 2
Fore
SplineSet
751 0 m 5
 131 0 l 5
 131 1000 l 5
 288 1000 l 5
 288 147 l 5
 751 147 l 5
 751 0 l 5
EndSplineSet
Validated: 1
EndChar
StartChar: u1041C
Encoding: 28 66588 28
Width: 718
VWidth: 1754
Flags: W
HStem: -20.2002 152.918<317.801 394.542>
VStem: 176.76 359.48<65.3395 410.062>
LayerCount: 2
Fore
SplineSet
502.040039062 403 m 1
 524.83984375 356.893554688 536.240234375 299.640625 536.240234375 233.3046875 c 0
 536.240234375 190.200195312 531.426757812 161.059570312 523.651367188 130.982421875 c 0
 512.172851562 86.580078125 498.747070312 57.5732421875 481.51953125 36.7998046875 c 1
 453.653320312 -1.2001953125 412.359375 -20.2001953125 357.064453125 -20.2001953125 c 0
 322.680664062 -20.2001953125 293.546875 -12.853515625 270.098632812 1.9287109375 c 0
 246.932617188 16.533203125 227.426757812 39.5869140625 209.897460938 74.4169921875 c 0
 188.413085938 117.106445312 176.759765625 163.853515625 176.759765625 231.084960938 c 0
 176.759765625 299.8203125 188.436523438 358.0859375 212.796875 405.3046875 c 1
 212.294921875 405.633789062 266 516 266 516 c 1
 35 1000 l 1
 213 1000 l 1
 357 702 l 1
 501 1000 l 1
 681 1000 l 1
 446 516 l 1
 502.040039062 403 l 1
502.040039062 403 m 1025
357 334 m 1
 323.396484375 264.288085938 294.1171875 203.544921875 327.514648438 149.6015625 c 0
 333.9140625 138.345703125 343.95703125 132.717773438 356.71484375 132.717773438 c 0
 373.088867188 132.717773438 384.137695312 142.115234375 393.287109375 164.362304688 c 0
 410 205 396.791992188 252.462890625 357 334 c 1
323.77734375 259.555664062 m 1025
321.690429688 260.748046875 m 1025
501.3984375 402.565429688 m 1025
EndSplineSet
Validated: 524321
EndChar
StartChar: u1041D
Encoding: 29 66589 29
Width: 1176
VWidth: 1754
Flags: W
HStem: -17 161<473.594 693.914> 466 163<477.58 690.232> 856 161<480.999 686.818>
VStem: 243 162<211.307 408.313> 285 158<728.601 816.472> 724 161<663.131 817.357> 765 159<211.333 353.026>
LayerCount: 2
Fore
SplineSet
583.5 1017 m 0xe8
 746.819335938 1017 885 888.446289062 885 733 c 0xec
 885 667.00390625 859.3359375 606.673828125 808.008789062 552.008789062 c 1
 877.067382812 552.557617188 1025.34375 533.166992188 1117 371 c 1
 973 304 l 1
 957.171875 323.95703125 940.239257812 340.48046875 922.202148438 353.5703125 c 1
 923.400390625 342.310546875 924 330.787109375 924 319 c 0
 924 137.750976562 769.624023438 -17 583.5 -17 c 0
 398.4609375 -17 243 135.38671875 243 319 c 0xf2
 243 411.666992188 281.666992188 489.333007812 359 552 c 1
 358.693359375 552.328125 358.38671875 552.65625 358.081054688 552.984375 c 0
 280.787109375 552.534179688 138.112304688 575.3359375 49 733 c 1
 193 800 l 1
 220.379882812 765.477539062 251.06640625 741.229492188 285.05859375 727.254882812 c 1
 285.01953125 729.1640625 285 731.079101562 285 733 c 0
 285 887.206054688 418.942382812 1017 583.5 1017 c 0xe8
583.5 629 m 0
 662.561523438 629 724 676.658203125 724 737 c 0
 724 804.659179688 661.80859375 856 583.5 856 c 0
 503.7421875 856 443 802.139648438 443 737 c 0
 443 676.655273438 504.442382812 629 583.5 629 c 0
583 144 m 0
 684.700195312 144 765 221.344726562 765 315 c 0
 765 399.211914062 681.723632812 466 583.5 466 c 0
 486.962890625 466 405 403.131835938 405 315 c 0xf2
 405 223.387695312 481.442382812 144 583 144 c 0
EndSplineSet
Validated: 524321
EndChar
StartChar: u1041E
Encoding: 30 66590 30
Width: 879
VWidth: 1754
Flags: W
HStem: -17 161<351.519 573.002> 435 158<326.625 565.504> 856 161<366.364 581.462>
LayerCount: 2
Fore
SplineSet
447 593 m 4
 916.442382812 575.9296875 867.5546875 -17 471.014648438 -17 c 4
 326.592773438 -17 235.063476562 33.0078125 173.014648438 164 c 4
 128.34765625 255.333007812 106.34765625 366.666992188 107.014648438 498 c 4
 107.014648438 578 117.181640625 654.666992188 137.514648438 728 c 4
 157.84765625 801.333007812 185.34765625 860 220.014648438 904 c 4
 281.34765625 979.333007812 366.34765625 1017 475.014648438 1017 c 4
 552.34765625 1017 615.681640625 1000 665.014648438 966 c 4
 714.34765625 932 755.34765625 875.333007812 788.014648438 796 c 5
 638.014648438 737 l 5
 616.014648438 780.333007812 593.014648438 811 569.014648438 829 c 4
 545.014648438 847 513.681640625 856 475.014648438 856 c 4
 395.014648438 856 340.004882812 814.606445312 307.014648438 733 c 4
 288.540039062 687.30078125 273.001953125 610.362304688 268 548 c 5
 269.703125 548.467773438 337 597 447 593 c 4
280.848632812 342.954101562 m 5
 300.188476562 231.568359375 340.805664062 142.76953125 454.014648438 144 c 4
 546.147460938 144 629 200.490234375 629 291 c 4
 629 366.359375 552.79296875 435 447 435 c 4
 434.5234375 435 324.53515625 432.43359375 280.848632812 342.954101562 c 5
EndSplineSet
Validated: 524321
EndChar
StartChar: u1041F
Encoding: 31 66591 31
Width: 947
VWidth: 1754
Flags: W
HStem: -17 161<386.55 590.19> 856 161<383.074 586.574>
VStem: 131 161<271.017 458.02 543.159 737.65> 680 162<262.746 732.4>
LayerCount: 2
Fore
SplineSet
479 1017 m 1024
131 0 m 1
 292 0 l 1
 292 41.40234375 l 1
 342.14453125 2.4677734375 406.14453125 -17 484 -17 c 0
 553.333007812 -17 611.333007812 -2.6669921875 658 26 c 0
 704.666992188 54.6669921875 742.666992188 99.6669921875 772 161 c 0
 818.666992188 252.333007812 842 364.666992188 842 498 c 0
 842 666 805.666992188 801.333007812 733 904 c 0
 675 979.333007812 590 1017 478 1017 c 0
 405.36328125 1017 343.36328125 996.303710938 292 954.911132812 c 1
 292 1000 l 1
 131 1000 l 1
 131 0 l 1
292 543.159179688 m 1
 296.497070312 641.74609375 316.1640625 720.359375 351 779 c 0
 378.333007812 827 421.666992188 852.666992188 481 856 c 0
 555 859.333007812 608.666992188 818.333007812 642 733 c 0
 667.333007812 670.333007812 680 592 680 498 c 0
 680 376 660.333007812 283.666992188 621 221 c 0
 591 169.666992188 545.333007812 144 484 144 c 0
 414.666992188 144 363.333007812 186.333007812 330 271 c 0
 308.163085938 326.9921875 295.497070312 389.331054688 292 458.01953125 c 2
 292 543.159179688 l 1
EndSplineSet
Validated: 524329
EndChar
StartChar: u10420
Encoding: 32 66592 32
Width: 830
VWidth: 1754
Flags: W
HStem: -17 161<303.327 536.945> 860 157<304.473 517.995>
VStem: 585 161<192.712 387.463>
LayerCount: 2
Fore
SplineSet
746 288 m 0
 746 194.666992188 713.333007812 118.666992188 648 60 c 0
 590 8.6669921875 517.666992188 -17 431 -17 c 0
 347.666992188 -17 274.5 5.5 211.5 50.5 c 0
 148.5 95.5 100 157 66 235 c 1
 216 291 l 1
 260.666992188 193 332.333007812 144 431 144 c 0
 475.666992188 144 512.5 158 541.5 186 c 0
 570.5 214 585 249 585 291 c 0
 585 316.333007812 579.833007812 338.666992188 569.5 358 c 0
 559.166992188 377.333007812 542.833007812 393.833007812 520.5 407.5 c 0
 498.166992188 421.166992188 477.666992188 432 459 440 c 0
 440.333007812 448 413.5 458 378.5 470 c 0
 343.5 482 317.333007812 491.333007812 300 498 c 0
 170.666992188 549.333007812 106.333007812 632.333007812 107 747 c 0
 107 840.333007812 135.166992188 908.666992188 191.5 952 c 0
 247.833007812 995.333007812 324 1017 420 1017 c 0
 553.333007812 1017 647.666992188 949.333007812 703 814 c 1
 562 773 l 1
 560 779 555.833007812 786.666992188 549.5 796 c 0
 543.166992188 805.333007812 527.5 818 502.5 834 c 0
 477.5 850 448.333007812 858.666992188 415 860 c 0
 371.666992188 862 334.333007812 853.333007812 303 834 c 0
 271.666992188 814.666992188 257.666992188 784.333007812 261 743 c 0
 263 709.666992188 281.166992188 683.166992188 315.5 663.5 c 0
 349.833007812 643.833007812 390.5 627.333007812 437.5 614 c 0
 484.5 600.666992188 531.333007812 584.333007812 578 565 c 0
 624.666992188 545.666992188 664.333007812 513 697 467 c 0
 729.666992188 421 746 361.333007812 746 288 c 0
EndSplineSet
Validated: 524321
EndChar
StartChar: u10421
Encoding: 33 66593 33
Width: 947
VWidth: 1754
Flags: W
HStem: 308.646 155.639<252.205 413.145 574.145 682.636>
LayerCount: 2
Fore
SplineSet
574.14453125 0 m 1
 574.14453125 1000 l 1
 413.14453125 1000 l 1
 413.14453125 0 l 1
 574.14453125 0 l 1
476.14453125 1017 m 1049
574.14453125 307.000976562 m 1
 651.772460938 307.180664062 794.428710938 331.036132812 883.14453125 488 c 1
 739.14453125 555 l 1
 693.381835938 497.298828125 638.381835938 468.299804688 574.14453125 468.001953125 c 1
 574.14453125 590 l 1
 562.094726562 639.44921875 l 1
 512.076171875 794.5546875 296.092773438 889.360351562 152.40625 711.926757812 c 0
 14.2197265625 541.282226562 112.22265625 372.139648438 259.05078125 326.397460938 c 0
 290.904296875 316.473632812 336.081054688 310.555664062 394.583984375 308.646484375 c 1
 413.14453125 308.475585938 l 1
 413.14453125 0 l 1
 574.14453125 0 l 1
 574.14453125 307.000976562 l 1
413.14453125 464.28515625 m 1
 134.797851562 454.34375 211.59765625 651.6171875 305.7109375 660.583984375 c 0
 346.9375 664.513671875 396.577148438 633.525390625 413.14453125 584 c 1
 413.14453125 464.28515625 l 1
EndSplineSet
Validated: 524325
EndChar
StartChar: u10422
Encoding: 34 66594 34
Width: 881
VWidth: 1754
Flags: W
HStem: -17 161<353.842 576.464>
VStem: 126.021 157<219.675 1000> 648.022 158<219.104 358>
LayerCount: 2
Fore
SplineSet
806.022460938 358 m 1
 806.021484375 287.333007812 790.688476562 218.333007812 760.021484375 151 c 1
 734.021484375 101.666992188 693.521484375 61.3330078125 638.521484375 30 c 0
 583.521484375 -1.3330078125 525.688476562 -17 465.021484375 -17 c 0
 404.35546875 -17 346.688476562 -1.3330078125 292.021484375 30 c 0
 237.35546875 61.3330078125 196.688476562 101.666992188 170.021484375 151 c 1
 140.021484375 216.333007812 125.35546875 285.333007812 126.021484375 358 c 2
 126.021484375 1000 l 1
 283.021484375 1000 l 1
 283.021484375 358 l 2
 283.021484375 292.666992188 299.688476562 240.666992188 333.021484375 202 c 0
 366.35546875 163.333007812 410.35546875 144 465.021484375 144 c 0
 519.688476562 144 563.85546875 163.333007812 597.521484375 202 c 0
 631.188476562 240.666992188 648.021484375 292.666992188 648.022460938 358 c 1
 806.022460938 358 l 1
EndSplineSet
Validated: 524321
EndChar
StartChar: u10423
Encoding: 35 66595 35
Width: 857
VWidth: 1754
Flags: W
HStem: -17 161<280.507 492.526> 856 161<275.147 493.852>
VStem: 591 162<269.043 732.981>
LayerCount: 2
Fore
SplineSet
72 204 m 1
 132.666992188 56.6669921875 233 -17 373 -17 c 0
 517 -17 619.333984375 42.3330078125 680 161 c 1
 729.333984375 253.666992188 753.666992188 367.333007812 753 502 c 0
 753 582 743 658.166992188 723 730.5 c 0
 703 802.833007812 675.333984375 860.666992188 640 904 c 0
 578.666992188 979.333007812 493.666992188 1017 385 1017 c 0
 309.666992188 1017 246.833984375 1000.83300781 196.5 968.5 c 0
 146.166992188 936.166992188 104.666992188 884.666992188 72 814 c 1
 219 750 l 1
 247.666992188 792 273.166992188 820.166992188 295.5 834.5 c 0
 317.833984375 848.833007812 347.666992188 856 385 856 c 0
 465 856 521 815 553 733 c 0
 578.333984375 670.333007812 591 593.333007812 591 502 c 0
 591 380.666992188 570.333984375 287 529 221 c 0
 495.666992188 169.666992188 445.333984375 144 378 144 c 0
 312 144 260 182.666992188 222 260 c 1
 72 204 l 1
EndSplineSet
Validated: 524329
EndChar
StartChar: u10424
Encoding: 36 66596 36
Width: 724
VWidth: 1754
Flags: W
LayerCount: 2
Fore
SplineSet
127 250 m 1
 268 250 l 1
 450 447 l 5
 450 0 l 1
 607 0 l 1
 607 700 l 1
 450 700 l 1
 285 521 l 1
 285 1000 l 1
 127 1000 l 1
 127 250 l 1
EndSplineSet
Validated: 9
EndChar
StartChar: u10425
Encoding: 37 66597 37
Width: 942
VWidth: 1754
Flags: W
LayerCount: 2
Fore
SplineSet
131 0 m 1
 272 0 l 1
 654 677 l 1
 654 0 l 1
 811 0 l 1
 811 1000 l 1
 654 1000 l 1
 289 361 l 1
 289 1000 l 1
 131 1000 l 1
 131 0 l 1
EndSplineSet
Validated: 9
EndChar
StartChar: u10426
Encoding: 38 66598 38
Width: 1331
VWidth: 1754
Flags: W
HStem: 0 21G<671.172 706 1116.17 1151>
VStem: 990 161<253.455 1000>
LayerCount: 2
Fore
SplineSet
1244 385 m 1
 873 555 l 1
 873 742 l 1
 1244 572 l 1
 1244 385 l 1
706 0 m 1
 100 348 l 1
 100 509 l 1
 545 253.455078125 l 1
 545 509 l 1
 990 253.455078125 l 1
 990 1000 l 1
 1151 1000 l 1
 1151 0 l 1
 706 255.544921875 l 1
 706 0 l 1
EndSplineSet
Validated: 524293
EndChar
StartChar: u10427
Encoding: 39 66599 39
Width: 734
VWidth: 1754
Flags: W
HStem: 0 21G<202 455.69> 850 147<239.593 430.803>
LayerCount: 2
Fore
SplineSet
522.375976562 68.6669921875 m 1
 199.279296875 205.813476562 l 1
 260.624023438 350.333007812 l 1
 583.720703125 213.186523438 l 1
 522.375976562 68.6669921875 l 1
328 850 m 0
 268 850 229.333007812 819.666992188 212 759 c 1
 51 815 l 1
 90.3330078125 936.333007812 182.666992188 997 328 997 c 0
 903.163085938 997 518.379882812 245.026367188 393 0 c 1
 202 0 l 1
 399.012695312 380.537109375 642.064453125 850 328 850 c 0
EndSplineSet
Validated: 524325
EndChar
